<svg preserveAspectRatio="none" overflow="visible" style="display: block;" width="100" height="100" viewBox="0 0 100 100" fill="none" xmlns="http://www.w3.org/2000/svg">
<g id="payments">
<mask id="mask0_0_683" style="mask-type:alpha" maskUnits="userSpaceOnUse" x="0" y="0" width="100" height="100">
<rect id="Bounding box" width="100" height="100" fill="#D9D9D9"/>
</mask>
<g mask="url(#mask0_0_683)">
<path id="payments_2" d="M58.3333 54.1667C54.8611 54.1667 51.9097 52.9514 49.4792 50.5208C47.0486 48.0903 45.8333 45.1389 45.8333 41.6667C45.8333 38.1944 47.0486 35.2431 49.4792 32.8125C51.9097 30.3819 54.8611 29.1667 58.3333 29.1667C61.8056 29.1667 64.7569 30.3819 67.1875 32.8125C69.6181 35.2431 70.8333 38.1944 70.8333 41.6667C70.8333 45.1389 69.6181 48.0903 67.1875 50.5208C64.7569 52.9514 61.8056 54.1667 58.3333 54.1667ZM29.1667 66.6667C26.875 66.6667 24.9132 65.8507 23.2812 64.2187C21.6493 62.5868 20.8333 60.625 20.8333 58.3333V25C20.8333 22.7083 21.6493 20.7465 23.2812 19.1146C24.9132 17.4826 26.875 16.6667 29.1667 16.6667H87.5C89.7917 16.6667 91.7535 17.4826 93.3854 19.1146C95.0174 20.7465 95.8333 22.7083 95.8333 25V58.3333C95.8333 60.625 95.0174 62.5868 93.3854 64.2187C91.7535 65.8507 89.7917 66.6667 87.5 66.6667H29.1667ZM37.5 58.3333H79.1667C79.1667 56.0417 79.9826 54.0799 81.6146 52.4479C83.2465 50.816 85.2083 50 87.5 50V33.3333C85.2083 33.3333 83.2465 32.5174 81.6146 30.8854C79.9826 29.2535 79.1667 27.2917 79.1667 25H37.5C37.5 27.2917 36.684 29.2535 35.0521 30.8854C33.4201 32.5174 31.4583 33.3333 29.1667 33.3333V50C31.4583 50 33.4201 50.816 35.0521 52.4479C36.684 54.0799 37.5 56.0417 37.5 58.3333ZM83.3333 83.3333H12.5C10.2083 83.3333 8.24653 82.5174 6.61458 80.8854C4.98264 79.2535 4.16667 77.2917 4.16667 75V29.1667H12.5V75H83.3333V83.3333Z" fill="#F0989B"/>
</g>
</g>
</svg>
