<svg preserveAspectRatio="none" overflow="visible" style="display: block;" width="100" height="100" viewBox="0 0 100 100" fill="none" xmlns="http://www.w3.org/2000/svg">
<g id="audio_capture">
<mask id="mask0_0_436" style="mask-type:alpha" maskUnits="userSpaceOnUse" x="0" y="0" width="100" height="100">
<rect id="Bounding box" width="100" height="100" fill="#D9D9D9"/>
</mask>
<g mask="url(#mask0_0_436)">
<path id="audio_capture_2" d="M8.33333 91.6667V50H16.6667V71.3542L21.4583 66.6667H33.3333V75H25L8.33333 91.6667ZM66.6667 75V66.6667H83.3333V50H91.6667V66.6667C91.6667 68.9583 90.8507 70.9201 89.2188 72.5521C87.5868 74.184 85.625 75 83.3333 75H66.6667ZM45.8333 62.5V20.8333H54.1667V62.5H45.8333ZM29.1667 54.1667V29.1667H37.5V54.1667H29.1667ZM62.5 50V33.3333H70.8333V50H62.5ZM8.33333 33.3333V16.6667C8.33333 14.375 9.14931 12.4132 10.7813 10.7813C12.4132 9.14931 14.375 8.33333 16.6667 8.33333H33.3333V16.6667H16.6667V33.3333H8.33333ZM83.3333 33.3333V16.6667H66.6667V8.33333H83.3333C85.625 8.33333 87.5868 9.14931 89.2188 10.7813C90.8507 12.4132 91.6667 14.375 91.6667 16.6667V33.3333H83.3333Z" fill="#5B647E"/>
</g>
</g>
</svg>
