<svg preserveAspectRatio="none" overflow="visible" style="display: block;" width="100" height="100" viewBox="0 0 100 100" fill="none" xmlns="http://www.w3.org/2000/svg">
<g id="robot">
<mask id="mask0_0_378" style="mask-type:alpha" maskUnits="userSpaceOnUse" x="0" y="0" width="100" height="100">
<rect id="Bounding box" width="100" height="100" fill="#D9D9D9"/>
</mask>
<g mask="url(#mask0_0_378)">
<path id="robot_2" d="M20.8333 87.5C18.5417 87.5 16.5799 86.684 14.9479 85.0521C13.316 83.4201 12.5 81.4583 12.5 79.1667V37.5C12.5 30.5556 14.9306 24.6528 19.7917 19.7917C24.6528 14.9306 30.5556 12.5 37.5 12.5H62.5C69.4444 12.5 75.3472 14.9306 80.2083 19.7917C85.0694 24.6528 87.5 30.5556 87.5 37.5V79.1667C87.5 81.4583 86.684 83.4201 85.0521 85.0521C83.4201 86.684 81.4583 87.5 79.1667 87.5H20.8333ZM20.8333 79.1667H79.1667V37.5C79.1667 32.9167 77.5347 28.9931 74.2708 25.7292C71.0069 22.4653 67.0833 20.8333 62.5 20.8333H37.5C32.9167 20.8333 28.9931 22.4653 25.7292 25.7292C22.4653 28.9931 20.8333 32.9167 20.8333 37.5V79.1667ZM31.6146 47.5521C29.9826 45.9201 29.1667 43.9583 29.1667 41.6667C29.1667 39.375 29.9826 37.4132 31.6146 35.7812C33.2465 34.1493 35.2083 33.3333 37.5 33.3333C39.7917 33.3333 41.7535 34.1493 43.3854 35.7812C45.0174 37.4132 45.8333 39.375 45.8333 41.6667C45.8333 43.9583 45.0174 45.9201 43.3854 47.5521C41.7535 49.184 39.7917 50 37.5 50C35.2083 50 33.2465 49.184 31.6146 47.5521ZM56.6146 47.5521C54.9826 45.9201 54.1667 43.9583 54.1667 41.6667C54.1667 39.375 54.9826 37.4132 56.6146 35.7812C58.2465 34.1493 60.2083 33.3333 62.5 33.3333C64.7917 33.3333 66.7535 34.1493 68.3854 35.7812C70.0174 37.4132 70.8333 39.375 70.8333 41.6667C70.8333 43.9583 70.0174 45.9201 68.3854 47.5521C66.7535 49.184 64.7917 50 62.5 50C60.2083 50 58.2465 49.184 56.6146 47.5521ZM29.1667 79.1667V70.8333C29.1667 68.5417 29.9826 66.5799 31.6146 64.9479C33.2465 63.316 35.2083 62.5 37.5 62.5H62.5C64.7917 62.5 66.7535 63.316 68.3854 64.9479C70.0174 66.5799 70.8333 68.5417 70.8333 70.8333V79.1667H62.5V70.8333H54.1667V79.1667H45.8333V70.8333H37.5V79.1667H29.1667Z" fill="#E9696E"/>
</g>
</g>
</svg>
